<?xml version="1.0" standalone="no"?>
<!DOCTYPE svg PUBLIC "-//W3C//DTD SVG 20010904//EN"
 "http://www.w3.org/TR/2001/REC-SVG-20010904/DTD/svg10.dtd">
<svg version="1.0" xmlns="http://www.w3.org/2000/svg"
 width="512.000000pt" height="512.000000pt" viewBox="0 0 512.000000 512.000000"
 preserveAspectRatio="xMidYMid meet">

<g transform="translate(0.000000,512.000000) scale(0.100000,-0.100000)"
fill="#000000" stroke="none">
<path d="M963 5105 c-159 -43 -280 -171 -313 -330 -7 -33 -10 -131 -8 -250 l3
-197 33 -29 32 -29 296 0 c321 0 350 -4 409 -52 123 -102 97 -292 -50 -359
-106 -49 -222 -2 -281 113 -40 79 -35 78 -322 78 -275 0 -297 -4 -320 -55 -20
-44 -14 -82 17 -117 27 -30 34 -33 105 -36 l76 -4 0 -275 c0 -225 3 -279 15
-303 30 -58 45 -60 372 -60 268 0 302 -2 338 -19 147 -67 173 -257 49 -359
-68 -56 -152 -64 -234 -22 -44 22 -72 53 -99 107 -38 75 -46 78 -291 81 -118
2 -235 1 -259 -3 -61 -9 -101 -50 -101 -103 0 -74 55 -112 163 -112 l47 0 0
-275 c0 -296 3 -319 53 -347 16 -10 108 -14 343 -18 l321 -5 41 -27 c126 -84
126 -272 0 -356 -36 -24 -51 -27 -119 -27 -70 0 -81 3 -120 30 -27 19 -54 52
-74 89 -18 33 -43 65 -59 73 -21 11 -77 13 -282 11 l-256 -3 -29 -33 c-32 -36
-37 -77 -15 -121 20 -37 55 -51 131 -51 l64 0 3 -291 3 -291 33 -29 32 -29
296 0 c321 0 350 -4 409 -52 123 -102 97 -292 -50 -359 -106 -49 -222 -2 -281
113 -40 79 -35 78 -322 78 -275 0 -297 -4 -320 -55 -20 -44 -14 -82 17 -117
27 -30 34 -33 105 -36 l76 -4 0 -127 c0 -140 14 -215 57 -293 31 -57 113 -138
171 -167 104 -53 27 -51 1794 -51 1174 0 1652 3 1690 11 151 32 273 142 319
288 19 61 19 111 19 2261 0 2150 0 2200 -19 2261 -46 146 -168 256 -319 288
-38 8 -515 11 -1695 10 -1382 0 -1650 -3 -1694 -14z m2013 -1486 c104 -19 197
-70 278 -151 114 -116 156 -218 156 -378 0 -148 -52 -272 -156 -375 -208 -206
-542 -206 -748 0 -105 105 -156 227 -156 375 0 160 42 262 156 378 130 131
294 183 470 151z m166 -1199 c180 -38 393 -127 505 -211 66 -50 126 -128 160
-210 22 -53 27 -84 31 -179 2 -67 0 -132 -7 -156 -14 -51 -71 -118 -125 -147
l-41 -22 -785 0 -785 0 -41 22 c-52 28 -111 95 -124 142 -5 20 -10 79 -10 131
0 166 40 270 147 377 110 111 386 228 628 268 118 19 318 13 447 -15z"/>
</g>
</svg>
